<?xml version="1.0" standalone="no"?>
<!DOCTYPE svg PUBLIC "-//W3C//DTD SVG 20010904//EN"
 "http://www.w3.org/TR/2001/REC-SVG-20010904/DTD/svg10.dtd">
<svg version="1.0" xmlns="http://www.w3.org/2000/svg"
 width="156.000000pt" height="156.000000pt" viewBox="0 0 156.000000 156.000000"
 preserveAspectRatio="xMidYMid meet">
<metadata>
Created by potrace 1.14, written by Peter Selinger 2001-2017
</metadata>
<g transform="translate(0.000000,156.000000) scale(0.100000,-0.100000)"
fill="#000000" stroke="none">
<path d="M1548 1215 c-2 -3 -170 -5 -371 -6 l-367 -1 -1 -29 c-1 -16 -2 -32
-3 -36 -2 -7 -8 -55 -22 -163 -2 -19 -6 -48 -9 -65 -3 -16 -7 -52 -11 -80 -3
-27 -7 -59 -9 -70 -1 -11 -6 -49 -10 -85 l-8 -65 -14 60 c-26 112 -63 280 -68
307 -2 15 -9 46 -16 70 -14 54 -14 53 -24 111 l-7 48 -66 -3 -67 -3 -12 -55
c-7 -30 -15 -67 -18 -82 -3 -16 -12 -56 -20 -90 -8 -35 -16 -74 -18 -88 -3
-14 -10 -43 -15 -65 -6 -22 -14 -53 -17 -70 -23 -132 -31 -144 -40 -65 -4 36
-9 72 -10 80 -2 8 -6 38 -9 65 -16 132 -19 151 -22 170 -2 11 -6 43 -10 70 -3
28 -7 59 -9 70 -2 11 -4 30 -4 42 -1 22 -3 23 -128 20 l-128 -2 -3 -76 -3 -77
55 1 c30 1 58 -2 61 -5 6 -5 25 -104 41 -208 3 -19 9 -53 14 -75 5 -22 11 -53
14 -70 21 -127 46 -268 51 -290 3 -14 7 -36 10 -50 5 -24 8 -25 84 -25 l79 0
8 38 c4 20 8 39 9 42 2 7 24 109 29 135 23 113 81 356 82 349 5 -16 102 -487
110 -526 l6 -38 78 0 c85 0 83 -2 95 65 2 17 9 55 15 85 5 30 11 66 14 80 2
14 13 77 25 140 11 63 22 126 25 140 2 14 12 67 21 118 l18 92 71 1 c39 1 89
2 111 3 22 1 45 0 51 -2 8 -2 11 -108 12 -350 0 -191 1 -353 1 -359 1 -9 24
-13 81 -13 l80 0 0 360 0 360 68 1 c37 1 79 0 95 -1 22 -1 27 3 28 22 0 13 1
51 2 86 1 34 2 62 1 62 0 0 -3 -2 -6 -5z"/>
</g>
</svg>
